<?xml version="1.0" encoding="iso-8859-1"?>
<!-- Uploaded to: SVG Repo, www.svgrepo.com, Generator: SVG Repo Mixer Tools -->
<svg version="1.1" id="Layer_1" xmlns="http://www.w3.org/2000/svg" xmlns:xlink="http://www.w3.org/1999/xlink" 
	 viewBox="0 0 512 512" xml:space="preserve">
<circle style="fill:#C2D5D8;" cx="256" cy="256" r="256"/>
<path style="fill:#B7C9CC;" d="M509.156,294.136c-0.288-0.716-0.564-1.432-0.876-2.132c-0.076-0.164-0.116-0.336-0.188-0.5
	c-0.464-1.216-0.944-2.416-1.476-3.596c-0.064-0.164-0.108-0.328-0.18-0.492c-0.464-1.216-0.944-2.416-1.476-3.6
	c-0.064-0.16-0.112-0.328-0.18-0.484c-0.464-1.22-0.944-2.42-1.472-3.6c-0.52-1.384-1.06-2.752-1.656-4.088
	c-0.068-0.16-0.112-0.328-0.18-0.484c-0.468-1.216-0.94-2.416-1.476-3.604c-0.068-0.156-0.112-0.328-0.18-0.484
	c-0.468-1.22-0.948-2.42-1.476-3.604c-0.068-0.16-0.112-0.332-0.18-0.492c-0.464-1.216-0.94-2.416-1.472-3.592
	c-0.072-0.16-0.108-0.324-0.176-0.48c-0.464-1.22-0.948-2.424-1.48-3.608c-0.068-0.164-0.108-0.332-0.18-0.496
	c-0.468-1.212-0.944-2.416-1.476-3.592c-0.068-0.164-0.116-0.332-0.18-0.496c-0.468-1.212-0.944-2.416-1.476-3.592
	c-0.068-0.164-0.108-0.332-0.18-0.496c-0.468-1.208-0.944-2.404-1.468-3.58c-0.072-0.168-0.116-0.344-0.188-0.512
	c-0.468-1.212-0.936-2.412-1.476-3.588c-0.068-0.164-0.108-0.336-0.18-0.5c-0.468-1.212-0.944-2.412-1.476-3.592
	c-0.068-0.164-0.108-0.332-0.18-0.496c-0.46-1.212-0.94-2.416-1.476-3.592c-0.064-0.164-0.108-0.332-0.18-0.496
	c-0.46-1.208-0.936-2.408-1.468-3.584c-0.072-0.164-0.112-0.336-0.188-0.5c-0.46-1.216-0.936-2.42-1.468-3.6
	c-0.072-0.16-0.112-0.328-0.18-0.488c-0.284-0.744-0.524-1.516-0.828-2.252c-0.464-1.208-0.94-2.404-1.468-3.58
	c-0.08-0.168-0.12-0.344-0.188-0.508c-0.464-1.2-0.936-2.396-1.46-3.564c-0.08-0.172-0.116-0.352-0.192-0.524
	c-0.464-1.208-0.936-2.404-1.468-3.58c-0.076-0.168-0.112-0.344-0.188-0.512c-0.464-1.208-0.932-2.404-1.468-3.58
	c-0.068-0.168-0.112-0.344-0.188-0.508c-0.46-1.208-0.94-2.408-1.472-3.584c-0.068-0.164-0.108-0.332-0.184-0.5
	c-0.456-1.204-0.932-2.404-1.464-3.576c-0.072-0.168-0.116-0.344-0.192-0.508c-0.464-1.212-0.94-2.416-1.464-3.592
	c-0.076-0.164-0.116-0.336-0.192-0.5c-0.456-1.212-0.94-2.412-1.464-3.592c-0.076-0.164-0.116-0.332-0.188-0.496
	c-0.46-1.212-0.944-2.416-1.468-3.592c-0.076-0.164-0.116-0.336-0.188-0.5c-0.46-1.204-0.936-2.4-1.46-3.576
	c-0.08-0.168-0.12-0.348-0.196-0.52c-0.46-1.208-0.936-2.404-1.468-3.58c-0.072-0.168-0.116-0.34-0.188-0.508
	c-0.46-1.208-0.936-2.408-1.468-3.584c-0.076-0.168-0.116-0.34-0.188-0.508c-0.46-1.208-0.936-2.404-1.464-3.58
	c-0.068-0.16-0.112-0.332-0.184-0.492c-0.464-1.216-0.94-2.416-1.472-3.596c-0.068-0.168-0.12-0.344-0.192-0.508
	c-0.46-1.208-0.936-2.408-1.464-3.58c-0.068-0.168-0.12-0.344-0.188-0.508c-0.464-1.208-0.94-2.408-1.468-3.58
	c-0.068-0.168-0.12-0.34-0.188-0.508c-0.464-1.208-0.94-2.408-1.468-3.584c-0.068-0.16-0.112-0.332-0.18-0.492
	c-0.468-1.216-0.94-2.42-1.476-3.604c-0.068-0.164-0.112-0.332-0.184-0.496C440.584,123.232,414.472,104,383.812,104
	c-2.092,0-4.156-0.104-6.204,0.08c-0.596,0.048-1.192-0.08-1.788-0.08c-0.004,0-0.008,0-0.008,0v0.236
	c-36,3.868-62.316,32.904-63.844,68.536l-7.352,0.976l-164.204,20.556c-7.044-17.756-24.336-30.316-44.6-30.316
	c-1.276,0-2.536-0.116-3.784-0.008c-0.744,0.06-1.476,0.024-2.208,0.024h-2.008v0.208c-20,2.96-42,23.216-42,47.688
	c0,0.344,0.048,0.68,0.056,1.024c-0.008,0.344-0.056,0.676-0.056,1.024s0.048,0.68,0.056,1.024
	c-0.008,0.344-0.056,0.676-0.056,1.024c0,7.4,2.036,14.416,5.396,20.704c0.924,3.576,2.272,7.008,4,10.244
	c0.924,3.58,2.272,7.012,4,10.252c0.924,3.58,2.272,7.008,4,10.244c1.164,4.5,3.024,8.752,5.42,12.696
	c0.74,1.968,1.588,3.896,2.58,5.748c0.924,3.584,2.272,7.012,4,10.252c0.924,3.576,2.272,7.008,4,10.244
	c0.924,3.584,2.272,7.016,4,10.252c0.924,3.576,2.272,7.008,4,10.24c0.924,3.58,2.272,7.016,4,10.252
	c0.924,3.576,2.272,7.008,4,10.244c0.924,3.58,2.272,7.012,4,10.252c1.164,4.5,3.024,8.752,5.42,12.692
	c0.74,1.972,1.588,3.9,2.58,5.752c0.924,3.576,2.272,7.008,4,10.24c0.924,3.58,2.272,7.012,4,10.248
	c0.924,3.58,2.272,7.008,4,10.244c0.924,3.584,2.272,7.016,4,10.252c0.924,3.576,2.272,7.008,4,10.24
	c0.924,3.584,2.272,7.016,4,10.252c0.924,3.58,2.272,7.008,4,10.244c1.164,4.5,3.024,8.756,5.42,12.7
	c0.74,1.972,1.588,3.896,2.58,5.748c0.924,3.584,2.272,7.016,4,10.252c0.924,3.576,2.272,7.008,4,10.24
	c0.296,1.148,0.708,2.252,1.088,3.376C184.004,504.12,219.072,512,256,512C384.42,512,490.744,417.428,509.156,294.136z"/>
<rect x="227.803" y="48.861" transform="matrix(-0.124 -0.9923 0.9923 -0.124 77.0511 455.9897)" style="fill:#F5F5F5;" width="24" height="290.245"/>
<path style="fill:#CCCCCC;" d="M382.324,164.092l-77.708,9.712c-0.472,3.34-0.804,6.724-0.804,10.196
	c0,4.764,0.488,9.416,1.372,13.92l80.116-10.012L382.324,164.092z"/>
<polygon style="fill:#F5F5F5;" points="237.572,405.68 89.412,216.8 102.212,207.2 242.052,402.32 "/>
<path style="fill:#CCCCCC;" d="M214.46,376.22l23.112,29.46l4.48-3.36l-21.728-30.316C218.204,373.18,216.248,374.6,214.46,376.22z"
	/>
<polygon style="fill:#F5F5F5;" points="237.444,402.504 349.736,189.564 386.204,212.6 242.18,405.496 "/>
<path style="fill:#CCCCCC;" d="M325.524,235.48c8.4,8.208,18.8,14.344,30.4,17.676l30.28-40.556l-36.468-23.036L325.524,235.48z"/>
<circle style="fill:#4AB8A1;" cx="383.8" cy="176" r="72"/>
<path style="fill:#3C9983;" d="M383.812,104c-2.712,0-5.376,0.176-8,0.468c35.996,3.984,64,34.472,64,71.532
	s-28.004,67.548-64,71.532c2.624,0.292,5.288,0.468,8,0.468c39.764,0,72-32.236,72-72S423.58,104,383.812,104z"/>
<g>
	<path style="fill:#CCCCCC;" d="M132.948,250.084L102.212,207.2l-12.8,9.6l31.408,40.04
		C125.212,255.176,129.284,252.892,132.948,250.084z"/>
	<path style="fill:#CCCCCC;" d="M151.812,212c0-6.604-1.336-12.9-3.752-18.624l-53.74,6.716l2.976,23.816l54.232-6.78
		C151.712,215.444,151.812,213.736,151.812,212z"/>
	<path style="fill:#CCCCCC;" d="M254.632,369.916l-17.184,32.588l4.736,2.992L264.5,375.6
		C261.6,373.152,258.264,371.228,254.632,369.916z"/>
</g>
<circle style="fill:#3C9983;" cx="335.812" cy="172" r="12"/>
<circle style="fill:#4AB8A1;" cx="95.812" cy="212" r="48"/>
<g>
	<path style="fill:#3C9983;" d="M95.812,164c-2.036,0-4.028,0.168-6,0.416c23.672,2.96,42,23.112,42,47.584
		s-18.328,44.628-42,47.584c1.972,0.248,3.964,0.416,6,0.416c26.508,0,48-21.492,48-48S122.32,164,95.812,164z"/>
	<circle style="fill:#3C9983;" cx="67.812" cy="196" r="8"/>
</g>
<circle style="fill:#4AB8A1;" cx="239.812" cy="400" r="32"/>
<g>
	<path style="fill:#3C9983;" d="M239.812,368c-1.356,0-2.688,0.108-4,0.272c15.78,1.976,28,15.412,28,31.728
		s-12.22,29.752-28,31.728c1.312,0.164,2.644,0.272,4,0.272c17.672,0,32-14.328,32-32S257.484,368,239.812,368z"/>
	<circle style="fill:#3C9983;" cx="227.812" cy="380" r="4"/>
</g>
</svg>